<svg width="36" height="36" viewBox="0 0 36 36" fill="none" xmlns="http://www.w3.org/2000/svg">
<path d="M7.59161 30.0676L8.03245 29.4609L7.59161 30.0676ZM5.93237 28.4084L6.53914 27.9676L5.93237 28.4084ZM30.0676 28.4084L29.4609 27.9676L30.0676 28.4084ZM28.4084 30.0676L27.9676 29.4609L28.4084 30.0676ZM28.4084 5.93237L27.9676 6.53914L28.4084 5.93237ZM30.0676 7.59161L29.4609 8.03245L30.0676 7.59161ZM7.59161 5.93237L8.03245 6.53914L7.59161 5.93237ZM5.93237 7.59161L6.53914 8.03245L5.93237 7.59161ZM13.5 17.25C13.0858 17.25 12.75 17.5858 12.75 18C12.75 18.4142 13.0858 18.75 13.5 18.75V17.25ZM22.5 18.75C22.9142 18.75 23.25 18.4142 23.25 18C23.25 17.5858 22.9142 17.25 22.5 17.25V18.75ZM17.25 22.5C17.25 22.9142 17.5858 23.25 18 23.25C18.4142 23.25 18.75 22.9142 18.75 22.5H17.25ZM18.75 13.5C18.75 13.0858 18.4142 12.75 18 12.75C17.5858 12.75 17.25 13.0858 17.25 13.5H18.75ZM18 30.75C15.171 30.75 13.1095 30.749 11.5067 30.5753C9.9179 30.4032 8.86904 30.0687 8.03245 29.4609L7.15077 30.6744C8.28568 31.4989 9.62871 31.8806 11.3451 32.0666C13.0475 32.251 15.2044 32.25 18 32.25V30.75ZM3.75 18C3.75 20.7956 3.74897 22.9525 3.93341 24.6549C4.11937 26.3713 4.50105 27.7143 5.32561 28.8492L6.53914 27.9676C5.93132 27.131 5.59682 26.0821 5.42468 24.4933C5.25103 22.8905 5.25 20.829 5.25 18H3.75ZM8.03245 29.4609C7.45941 29.0445 6.95547 28.5406 6.53914 27.9676L5.32561 28.8492C5.83447 29.5496 6.45039 30.1655 7.15077 30.6744L8.03245 29.4609ZM30.75 18C30.75 20.829 30.749 22.8905 30.5753 24.4933C30.4032 26.0821 30.0687 27.131 29.4609 27.9676L30.6744 28.8492C31.4989 27.7143 31.8806 26.3713 32.0666 24.6549C32.251 22.9525 32.25 20.7956 32.25 18H30.75ZM18 32.25C20.7956 32.25 22.9525 32.251 24.6549 32.0666C26.3713 31.8806 27.7143 31.4989 28.8492 30.6744L27.9676 29.4609C27.131 30.0687 26.0821 30.4032 24.4933 30.5753C22.8905 30.749 20.829 30.75 18 30.75V32.25ZM29.4609 27.9676C29.0445 28.5406 28.5406 29.0445 27.9676 29.4609L28.8492 30.6744C29.5496 30.1655 30.1655 29.5496 30.6744 28.8492L29.4609 27.9676ZM18 5.25C20.829 5.25 22.8905 5.25103 24.4933 5.42468C26.0821 5.59682 27.131 5.93132 27.9676 6.53914L28.8492 5.32561C27.7143 4.50105 26.3713 4.11937 24.6549 3.93341C22.9525 3.74897 20.7956 3.75 18 3.75V5.25ZM32.25 18C32.25 15.2044 32.251 13.0475 32.0666 11.3451C31.8806 9.62871 31.4989 8.28568 30.6744 7.15077L29.4609 8.03245C30.0687 8.86904 30.4032 9.9179 30.5753 11.5067C30.749 13.1095 30.75 15.171 30.75 18H32.25ZM27.9676 6.53914C28.5406 6.95547 29.0445 7.45941 29.4609 8.03245L30.6744 7.15077C30.1655 6.45039 29.5496 5.83447 28.8492 5.32561L27.9676 6.53914ZM18 3.75C15.2044 3.75 13.0475 3.74897 11.3451 3.93341C9.62871 4.11937 8.28568 4.50105 7.15077 5.32561L8.03245 6.53914C8.86904 5.93132 9.9179 5.59682 11.5067 5.42468C13.1095 5.25103 15.171 5.25 18 5.25V3.75ZM5.25 18C5.25 15.171 5.25103 13.1095 5.42468 11.5067C5.59682 9.9179 5.93132 8.86904 6.53914 8.03245L5.32561 7.15077C4.50105 8.28568 4.11937 9.62871 3.93341 11.3451C3.74897 13.0475 3.75 15.2044 3.75 18H5.25ZM7.15077 5.32561C6.45039 5.83447 5.83447 6.45039 5.32561 7.15077L6.53914 8.03245C6.95547 7.45941 7.45941 6.95547 8.03245 6.53914L7.15077 5.32561ZM13.5 18.75H22.5V17.25H13.5V18.75ZM18.75 22.5V13.5H17.25V22.5H18.75Z" fill="url(#paint0_linear_828_893)"/>
<defs>
<linearGradient id="paint0_linear_828_893" x1="18" y1="4.5" x2="18" y2="31.5" gradientUnits="userSpaceOnUse">
<stop/>
<stop offset="1" stop-color="#32FF84"/>
</linearGradient>
</defs>
</svg>
