<svg width="19" height="16" viewBox="0 0 19 16" fill="none" xmlns="http://www.w3.org/2000/svg">
<path d="M11.3412 4.93059C11.5675 4.74835 11.5692 4.45156 11.3449 4.26768C11.1206 4.08381 10.7553 4.08248 10.529 4.26472L9.14841 5.37647C8.62843 5.79518 8.20345 6.1374 7.90206 6.44232C7.58866 6.7594 7.36178 7.08123 7.30118 7.46755C7.27461 7.63695 7.27461 7.80837 7.30118 7.97776C7.36178 8.36408 7.58866 8.68592 7.90206 9.00299C8.20345 9.30791 8.62843 9.65012 9.1484 10.0688L10.529 11.1806C10.7553 11.3628 11.1206 11.3615 11.3449 11.1776C11.5692 10.9938 11.5675 10.697 11.3412 10.5147L9.98509 9.42266C9.43471 8.97945 9.05717 8.67442 8.80171 8.41597C8.55355 8.16491 8.46842 8.00364 8.44577 7.85922C8.43154 7.76854 8.43154 7.67678 8.44577 7.58609C8.46842 7.44167 8.55355 7.28041 8.80171 7.02935C9.05717 6.77089 9.43471 6.46587 9.98509 6.02266L11.3412 4.93059Z" fill="black"/>
</svg>
