<svg width="13" height="16" viewBox="0 0 13 16" fill="none" xmlns="http://www.w3.org/2000/svg">
<path d="M1 6.30088C1 4.89139 1 4.18665 1.18696 3.6163C1.56482 2.46359 2.47656 1.55985 3.63949 1.18532C4.21489 1 4.92588 1 6.34786 1C7.76984 1 8.48083 1 9.05623 1.18532C10.2192 1.55985 11.1309 2.46359 11.5088 3.6163C11.6957 4.18665 11.6957 4.89139 11.6957 6.30088V11.8951C11.6957 13.3469 11.6957 14.0728 11.4345 14.4567C11.1153 14.9256 10.5591 15.1792 9.99215 15.1142C9.52808 15.061 8.97205 14.5886 7.86001 13.6438C7.37051 13.2279 7.12575 13.0199 6.85691 12.9258C6.52752 12.8104 6.1682 12.8104 5.83881 12.9258C5.56997 13.0199 5.32521 13.2279 4.83571 13.6438C3.72366 14.5886 3.16764 15.061 2.70357 15.1142C2.13664 15.1792 1.5804 14.9256 1.26125 14.4567C1 14.0728 1 13.3469 1 11.8951V6.30088Z" stroke="#8D8D8D"/>
</svg>
