<svg width="51" height="28" viewBox="0 0 51 28" fill="none" xmlns="http://www.w3.org/2000/svg">
<path d="M11.6797 10.1875V17.4336H12.2129H12.7461H13.567H14.1002H14.6334V10.1875H11.6797Z" fill="black"/>
<path d="M14.0992 18.4961H13.5662H12.7457H12.2127H11.6797V18.9539C11.6797 19.7609 12.3371 20.4175 13.1451 20.4175H13.1671C13.9749 20.4175 14.6322 19.7609 14.6322 18.9539V18.4961H14.0992Z" fill="#6D6D6D"/>
<path d="M14.538 5.07512C14.3322 4.85217 13.8505 3.97527 13.8125 3.75442L13.7044 3L13.0325 3.3607C12.954 3.40259 11.1107 4.4155 11.0055 6.59607C10.8953 8.87568 12.4648 9.43166 12.5316 9.45437L12.6148 9.48243H13.4378C14.5337 9.48209 15.1448 8.47486 15.335 7.61251C15.5298 6.72742 15.2543 5.85015 14.538 5.07512Z" fill="#969696"/>
<path d="M10.1328 7.42165V9.88707H4.98599V12.5504H8.83708V14.9439H4.98599V20.0547H1.90871V7.42165H10.1328Z" fill="black"/>
<path d="M20.7657 7.59187V20.1719H17.8587V7.59187H20.7657ZM27.1904 20.3079C26.261 20.3079 25.4224 20.1095 24.6744 19.7129C23.9377 19.3162 23.354 18.7495 22.9234 18.0129C22.504 17.2762 22.2944 16.4149 22.2944 15.4289C22.2944 14.4542 22.5097 13.5985 22.9404 12.8619C23.371 12.1139 23.9604 11.5415 24.7084 11.1449C25.4564 10.7482 26.295 10.5499 27.2244 10.5499C28.1537 10.5499 28.9924 10.7482 29.7404 11.1449C30.4884 11.5415 31.0777 12.1139 31.5084 12.8619C31.939 13.5985 32.1544 14.4542 32.1544 15.4289C32.1544 16.4035 31.9334 17.2649 31.4914 18.0129C31.0607 18.7495 30.4657 19.3162 29.7064 19.7129C28.9584 20.1095 28.1197 20.3079 27.1904 20.3079ZM27.1904 17.7919C27.7457 17.7919 28.216 17.5879 28.6014 17.1799C28.998 16.7719 29.1964 16.1882 29.1964 15.4289C29.1964 14.6695 29.0037 14.0859 28.6184 13.6779C28.2444 13.2699 27.7797 13.0659 27.2244 13.0659C26.6577 13.0659 26.1874 13.2699 25.8134 13.6779C25.4394 14.0745 25.2524 14.6582 25.2524 15.4289C25.2524 16.1882 25.4337 16.7719 25.7964 17.1799C26.1704 17.5879 26.635 17.7919 27.1904 17.7919ZM36.6036 12.2669C36.9436 11.7455 37.3686 11.3375 37.8786 11.0429C38.3886 10.7369 38.9552 10.5839 39.5786 10.5839V13.6609H38.7796C38.0542 13.6609 37.5102 13.8195 37.1476 14.1369C36.7849 14.4429 36.6036 14.9869 36.6036 15.7689V20.1719H33.6966V10.6859H36.6036V12.2669ZM49.9101 15.2759C49.9101 15.5479 49.8931 15.8312 49.8591 16.1259H43.2801C43.3254 16.7152 43.5124 17.1685 43.8411 17.4859C44.1811 17.7919 44.5947 17.9449 45.0821 17.9449C45.8074 17.9449 46.3117 17.6389 46.5951 17.0269H49.6891C49.5304 17.6502 49.2414 18.2112 48.8221 18.7099C48.4141 19.2085 47.8984 19.5995 47.2751 19.8829C46.6517 20.1662 45.9547 20.3079 45.1841 20.3079C44.2547 20.3079 43.4274 20.1095 42.7021 19.7129C41.9767 19.3162 41.4101 18.7495 41.0021 18.0129C40.5941 17.2762 40.3901 16.4149 40.3901 15.4289C40.3901 14.4429 40.5884 13.5815 40.9851 12.8449C41.3931 12.1082 41.9597 11.5415 42.6851 11.1449C43.4104 10.7482 44.2434 10.5499 45.1841 10.5499C46.1021 10.5499 46.9181 10.7425 47.6321 11.1279C48.3461 11.5132 48.9014 12.0629 49.2981 12.7769C49.7061 13.4909 49.9101 14.3239 49.9101 15.2759ZM46.9351 14.5109C46.9351 14.0122 46.7651 13.6155 46.4251 13.3209C46.0851 13.0262 45.6601 12.8789 45.1501 12.8789C44.6627 12.8789 44.2491 13.0205 43.9091 13.3039C43.5804 13.5872 43.3764 13.9895 43.2971 14.5109H46.9351ZM47.1391 8.25487L43.0421 9.97187V7.96587L47.1391 5.99387V8.25487Z" fill="black"/>
</svg>
