<svg width="1281" height="697" viewBox="0 0 1281 697" fill="none" xmlns="http://www.w3.org/2000/svg">
<path d="M281.027 261.57V448.62H294.792H308.556H329.745H343.509H357.274V261.57H281.027Z" fill="white"/>
<path d="M343.486 476.047H329.726H308.546H294.787H281.027V487.865C281.027 508.697 297.997 525.645 318.856 525.645H319.424C340.275 525.645 357.244 508.697 357.244 487.865V476.047H343.486Z" fill="#6D6D6D"/>
<path d="M354.806 129.594C349.493 123.839 337.059 101.203 336.077 95.5018L333.287 76.0273L315.943 85.3385C313.916 86.4198 266.335 112.567 263.62 168.856C260.775 227.701 301.289 242.053 303.014 242.64L305.161 243.364H326.405C354.695 243.355 370.469 217.355 375.379 195.094C380.408 172.247 373.297 149.601 354.806 129.594Z" fill="#969696"/>
<path d="M241.097 184.892V248.534H108.238V317.286H207.65V379.07H108.238V511H28.8015V184.892H241.097Z" fill="white"/>
<path d="M515.573 187.101V511.84H440.532V187.101H515.573ZM681.419 515.351C657.429 515.351 635.78 510.231 616.471 499.991C597.455 489.752 582.388 475.124 571.271 456.108C560.446 437.091 555.034 414.857 555.034 389.405C555.034 364.245 560.593 342.157 571.71 323.14C582.827 303.832 598.04 289.057 617.349 278.818C636.657 268.578 658.307 263.459 682.296 263.459C706.286 263.459 727.935 268.578 747.244 278.818C766.553 289.057 781.766 303.832 792.883 323.14C804 342.157 809.559 364.245 809.559 389.405C809.559 414.565 803.854 436.799 792.444 456.108C781.327 475.124 765.968 489.752 746.367 499.991C727.058 510.231 705.408 515.351 681.419 515.351ZM681.419 450.403C695.754 450.403 707.895 445.137 717.842 434.605C728.082 424.073 733.201 409.006 733.201 389.405C733.201 369.803 728.228 354.737 718.281 344.204C708.627 333.672 696.632 328.406 682.296 328.406C667.669 328.406 655.527 333.672 645.873 344.204C636.219 354.444 631.391 369.511 631.391 389.405C631.391 409.006 636.072 424.073 645.434 434.605C655.089 445.137 667.083 450.403 681.419 450.403ZM924.411 307.781C933.187 294.323 944.158 283.791 957.323 276.185C970.488 268.286 985.116 264.336 1001.21 264.336V343.766H980.582C961.858 343.766 947.815 347.861 938.453 356.053C929.091 363.952 924.411 377.995 924.411 398.181V511.84H849.37V266.969H924.411V307.781ZM1267.9 385.455C1267.9 392.476 1267.46 399.79 1266.59 407.397H1096.76C1097.93 422.61 1102.75 434.312 1111.24 442.504C1120.01 450.403 1130.69 454.352 1143.27 454.352C1162 454.352 1175.02 446.453 1182.33 430.655H1262.2C1258.1 446.746 1250.64 461.227 1239.82 474.1C1229.29 486.972 1215.97 497.066 1199.88 504.38C1183.79 511.694 1165.8 515.351 1145.91 515.351C1121.92 515.351 1100.56 510.231 1081.84 499.991C1063.11 489.752 1048.48 475.124 1037.95 456.108C1027.42 437.091 1022.15 414.857 1022.15 389.405C1022.15 363.952 1027.27 341.718 1037.51 322.701C1048.05 303.685 1062.67 289.057 1081.4 278.818C1100.12 268.578 1121.62 263.459 1145.91 263.459C1169.6 263.459 1190.67 268.432 1209.1 278.379C1227.53 288.326 1241.87 302.515 1252.1 320.946C1262.64 339.377 1267.9 360.88 1267.9 385.455ZM1191.11 365.707C1191.11 352.835 1186.72 342.595 1177.94 334.989C1169.16 327.382 1158.19 323.579 1145.03 323.579C1132.45 323.579 1121.77 327.236 1112.99 334.55C1104.51 341.864 1099.24 352.25 1097.2 365.707H1191.11ZM1196.37 204.216L1090.61 248.538V196.756L1196.37 145.851V204.216Z" fill="white"/>
</svg>
