<svg width="20" height="20" viewBox="0 0 20 20" fill="none" xmlns="http://www.w3.org/2000/svg">
<path fill-rule="evenodd" clip-rule="evenodd" d="M15.5047 3.06609C16.1554 3.71676 16.3845 4.62866 16.1927 5.46366C17.4933 5.59238 18.5091 6.68953 18.5091 8.02395C18.5091 8.76827 18.1931 9.43878 17.6878 9.90857C17.7175 10.3791 17.7175 10.8148 17.7174 11.6773V11.7207C17.7174 12.6688 17.7175 13.4095 17.6785 14.0071C17.639 14.614 17.5575 15.1154 17.3745 15.5782C16.9171 16.7352 16.0361 17.663 14.9165 18.1488C14.4658 18.3444 13.9783 18.4308 13.3944 18.4726C12.8211 18.5135 12.1119 18.5135 11.2093 18.5135H8.78815C7.88549 18.5135 7.17625 18.5135 6.60304 18.4726C6.01905 18.4308 5.53164 18.3444 5.08089 18.1488C3.96132 17.663 3.0803 16.7352 2.62285 15.5782C2.43987 15.1154 2.35839 14.614 2.31887 14.0071C2.27994 13.4095 2.27995 12.6689 2.27995 11.7207V11.6995C2.27995 11.323 2.27245 11.0196 2.26588 10.7541C2.25763 10.4205 2.25087 10.1468 2.26235 9.86353C1.78472 9.39641 1.48828 8.7448 1.48828 8.02395C1.48828 6.64805 2.56828 5.52439 3.9268 5.45448C3.73873 4.62199 3.96859 3.71439 4.61688 3.0661C5.62167 2.06131 7.25075 2.06131 8.25554 3.0661L9.93491 4.74548C9.97877 4.78934 10.0207 4.83441 10.0608 4.8806C10.1008 4.83441 10.1428 4.78933 10.1867 4.74547L11.866 3.06609C12.8708 2.0613 14.4999 2.0613 15.5047 3.06609ZM12.7057 3.90578C13.2468 3.36474 14.124 3.36474 14.665 3.90578C15.0826 4.32337 15.1781 4.94202 14.9507 5.45103H11.1605L12.7057 3.90578ZM7.41585 3.90579L8.96109 5.45103H5.17092C4.94349 4.94202 5.03899 4.32337 5.45657 3.90579C5.99761 3.36475 6.87481 3.36475 7.41585 3.90579ZM2.67578 8.02395C2.67578 7.2588 3.29605 6.63853 4.0612 6.63853H9.40495V9.40936H4.0612C3.29605 9.40936 2.67578 8.78909 2.67578 8.02395ZM10.5924 17.1281L10.5924 10.5969H15.9362C16.1385 10.5969 16.3353 10.5735 16.5242 10.5294C16.5299 10.8214 16.5299 11.177 16.5299 11.6995C16.5299 12.6734 16.5297 13.3754 16.4935 13.9299C16.4577 14.4796 16.3886 14.8423 16.2702 15.1416C15.9242 16.0168 15.264 16.7035 14.4438 17.0594C14.1671 17.1795 13.8297 17.2509 13.3097 17.2881C12.7837 17.3257 12.1169 17.326 11.1862 17.326H10.5587C10.5805 17.2641 10.5924 17.1975 10.5924 17.1281ZM9.40495 17.1281L9.40495 10.5969H4.0612C3.85005 10.5969 3.64484 10.5714 3.44847 10.5235L3.4514 10.633C3.45853 10.8962 3.46745 11.2257 3.46745 11.6995C3.46745 12.6734 3.46774 13.3754 3.50386 13.9299C3.53966 14.4796 3.60883 14.8423 3.72717 15.1416C4.07321 16.0168 4.73336 16.7035 5.5536 17.0594C5.83028 17.1795 6.16766 17.2509 6.68771 17.2881C7.21365 17.3257 7.88051 17.326 8.8112 17.326H9.43874C9.41686 17.2641 9.40495 17.1975 9.40495 17.1281ZM17.3216 8.02395C17.3216 7.2588 16.7013 6.63853 15.9362 6.63853H10.5924V9.40936H15.9362C16.7013 9.40936 17.3216 8.78909 17.3216 8.02395Z" fill="#FF00B8"/>
</svg>
