<svg width="20" height="20" viewBox="0 0 20 20" fill="none" xmlns="http://www.w3.org/2000/svg">
<path d="M6.56174 18.411C7.4215 18.5157 8.5125 18.5157 9.98975 18.5157C11.467 18.5157 12.558 18.5157 13.4178 18.411M6.56174 18.411C5.77735 18.3156 5.18544 18.133 4.6683 17.7839C4.58135 17.7251 4.49657 17.6633 4.41413 17.5983C3.38645 16.7887 2.94997 15.4389 2.077 12.7395C1.20403 10.04 0.767539 8.69027 1.12529 7.42834C1.15399 7.32711 1.18637 7.22697 1.22238 7.12812C1.6712 5.89592 2.81393 5.06174 5.0994 3.39338C7.38487 1.72502 8.52761 0.89084 9.83266 0.842738C9.93735 0.838879 10.0422 0.838879 10.1468 0.842738C11.4519 0.89084 12.5946 1.72502 14.8801 3.39338C17.1656 5.06174 18.3083 5.89592 18.7571 7.12812C18.7931 7.22697 18.8255 7.32711 18.8542 7.42834C19.212 8.69027 18.7755 10.04 17.9025 12.7395C17.0295 15.4389 16.593 16.7887 15.5654 17.5983C15.4829 17.6633 15.3982 17.7251 15.3112 17.7839C14.7941 18.133 14.2022 18.3156 13.4178 18.411M6.56174 18.411V18.3364V15.3227C6.56174 13.4204 8.09651 11.8784 9.98975 11.8784C11.883 11.8784 13.4178 13.4204 13.4178 15.3227V18.3364V18.411" stroke="black" stroke-width="1.5"/>
</svg>
