<svg width="10" height="10" viewBox="0 0 10 10" fill="none" xmlns="http://www.w3.org/2000/svg">
<path fill-rule="evenodd" clip-rule="evenodd" d="M6.15997 8.20984C7.12236 6.98259 8.33464 5.1996 8.33464 4.00493C8.33464 2.0239 6.84225 0.417969 5.0013 0.417969C3.16035 0.417969 1.66797 2.0239 1.66797 4.00493C1.66797 5.1996 2.88024 6.98259 3.84264 8.20984C4.34474 8.85011 4.59579 9.17025 5.0013 9.17025C5.40682 9.17025 5.65787 8.85011 6.15997 8.20984ZM5.0013 5.41797C4.31095 5.41797 3.7513 4.85833 3.7513 4.16797C3.7513 3.47761 4.31095 2.91797 5.0013 2.91797C5.69166 2.91797 6.2513 3.47761 6.2513 4.16797C6.2513 4.85833 5.69166 5.41797 5.0013 5.41797Z" fill="black"/>
</svg>
