<svg width="15" height="15" viewBox="0 0 15 15" fill="none" xmlns="http://www.w3.org/2000/svg">
<path d="M5.625 12.8125L7.29543 9.85712C7.3765 9.7137 7.44768 9.58777 7.51137 9.47637M7.51137 9.47637C7.70881 9.13108 7.8344 8.92537 7.95985 8.77101C8.99863 7.49282 10.8512 7.2403 12.1941 8.19384C12.4072 8.34515 12.6443 8.5818 13.1156 9.05313M7.51137 9.47637L7.1875 9.375C6.4403 9.22556 6.0667 9.15084 5.7238 9.15812C4.80615 9.17761 3.94347 9.59953 3.36471 10.3119C3.14844 10.5781 2.97806 10.9189 2.63728 11.6004L2.56864 11.7377L2.49297 11.8656M13.1156 9.05313C13.125 8.6003 13.125 8.0869 13.125 7.5C13.125 5.15642 13.125 3.98463 12.5282 3.16317C12.3354 2.89788 12.1021 2.66457 11.8368 2.47182C11.0154 1.875 9.84358 1.875 7.5 1.875C5.15642 1.875 3.98463 1.875 3.16317 2.47182C2.89788 2.66457 2.66457 2.89788 2.47182 3.16317C1.875 3.98463 1.875 5.15642 1.875 7.5C1.875 9.84358 1.875 11.0154 2.47182 11.8368C2.47882 11.8465 2.48587 11.856 2.49297 11.8656M13.1156 9.05313C13.0876 10.4085 12.9755 11.2211 12.5282 11.8368C12.3354 12.1021 12.1021 12.3354 11.8368 12.5282C11.0154 13.125 9.84358 13.125 7.5 13.125C5.15642 13.125 3.98463 13.125 3.16317 12.5282C2.9075 12.3424 2.68155 12.119 2.49297 11.8656M5.625 5.625C5.625 6.31536 6.18464 6.875 6.875 6.875C7.56536 6.875 8.125 6.31536 8.125 5.625C8.125 4.93464 7.56536 4.375 6.875 4.375C6.18464 4.375 5.625 4.93464 5.625 5.625Z" stroke="black" stroke-width="0.9375" stroke-linecap="round"/>
</svg>
