<svg width="20" height="20" viewBox="0 0 20 20" fill="none" xmlns="http://www.w3.org/2000/svg">
<path d="M16.0849 14.7109C15.7884 14.4209 15.3131 14.4261 15.0231 14.7225C14.7331 15.0189 14.7383 15.4943 15.0347 15.7843L16.0849 14.7109ZM18.4632 19.1385C18.7596 19.4284 19.235 19.4232 19.525 19.1268C19.815 18.8304 19.8098 18.355 19.5134 18.065L18.4632 19.1385ZM15.0347 15.7843L18.4632 19.1385L19.5134 18.065L16.0849 14.7109L15.0347 15.7843ZM8.70258 15.3352C4.84116 15.3352 1.73912 12.2771 1.73912 8.53913H0.237447C0.237447 13.1373 4.04303 16.8369 8.70258 16.8369V15.3352ZM15.666 8.53913C15.666 12.2771 12.564 15.3352 8.70258 15.3352V16.8369C13.3621 16.8369 17.1677 13.1373 17.1677 8.53913H15.666ZM8.70258 1.74302C12.564 1.74302 15.666 4.80118 15.666 8.53913H17.1677C17.1677 3.94096 13.3621 0.241353 8.70258 0.241353V1.74302ZM8.70258 0.241353C4.04303 0.241353 0.237447 3.94096 0.237447 8.53913H1.73912C1.73912 4.80118 4.84116 1.74302 8.70258 1.74302V0.241353Z" fill="black"/>
</svg>
