<svg width="18" height="18" viewBox="0 0 18 18" fill="none" xmlns="http://www.w3.org/2000/svg">
<path d="M6.875 10.0625L11.125 12.1875M11.125 5.8125L6.875 7.9375M13.25 15.375C12.0764 15.375 11.125 14.4236 11.125 13.25C11.125 12.0764 12.0764 11.125 13.25 11.125C14.4236 11.125 15.375 12.0764 15.375 13.25C15.375 14.4236 14.4236 15.375 13.25 15.375ZM4.75 11.125C3.57639 11.125 2.625 10.1736 2.625 9C2.625 7.82639 3.57639 6.875 4.75 6.875C5.92361 6.875 6.875 7.82639 6.875 9C6.875 10.1736 5.92361 11.125 4.75 11.125ZM13.25 6.875C12.0764 6.875 11.125 5.92361 11.125 4.75C11.125 3.57639 12.0764 2.625 13.25 2.625C14.4236 2.625 15.375 3.57639 15.375 4.75C15.375 5.92361 14.4236 6.875 13.25 6.875Z" stroke="#8D8D8D" stroke-width="1.41667" stroke-linecap="round" stroke-linejoin="round"/>
</svg>
